<svg width="50" height="50" viewBox="0 0 50 50" fill="none" xmlns="http://www.w3.org/2000/svg">
<path d="M43.75 14.5833C43.75 19.1875 35.3542 22.9167 25 22.9167C14.6458 22.9167 6.25 19.1875 6.25 14.5833C6.25 9.97917 14.6458 6.25 25 6.25C35.3542 6.25 43.75 9.97917 43.75 14.5833Z" fill="white"/>
<path d="M43.75 14.5833C43.75 19.1875 35.3542 22.9167 25 22.9167C14.6458 22.9167 6.25 19.1875 6.25 14.5833M43.75 14.5833C43.75 9.97917 35.3542 6.25 25 6.25C14.6458 6.25 6.25 9.97917 6.25 14.5833M43.75 14.5833V25M6.25 14.5833V25M43.75 25C43.75 29.6042 35.3542 33.3333 25 33.3333C14.6458 33.3333 6.25 29.6042 6.25 25M43.75 25V35.4167C43.75 40.0208 35.3542 43.75 25 43.75C14.6458 43.75 6.25 40.0208 6.25 35.4167V25" stroke="white" stroke-width="2" stroke-linecap="round" stroke-linejoin="round"/>
</svg>
