<svg width="50" height="50" viewBox="0 0 50 50" fill="none" xmlns="http://www.w3.org/2000/svg">
<path d="M29.1657 25V41.4167C29.2491 42.0417 29.0407 42.7083 28.5616 43.1458C28.3688 43.339 28.1399 43.4922 27.8879 43.5967C27.6358 43.7013 27.3657 43.7551 27.0928 43.7551C26.82 43.7551 26.5498 43.7013 26.2978 43.5967C26.0457 43.4922 25.8168 43.339 25.6241 43.1458L21.4366 38.9583C21.2093 38.7362 21.0366 38.4645 20.9318 38.1646C20.8269 37.8646 20.7929 37.5445 20.8324 37.2292V25H20.7699L8.76989 9.625C8.43157 9.19069 8.27891 8.64012 8.34528 8.0936C8.41164 7.54709 8.69163 7.04905 9.12405 6.70833C9.51989 6.41667 9.95739 6.25 10.4157 6.25H39.5824C40.0407 6.25 40.4782 6.41667 40.8741 6.70833C41.3065 7.04905 41.5865 7.54709 41.6528 8.0936C41.7192 8.64012 41.5665 9.19069 41.2282 9.625L29.2282 25H29.1657Z" fill="black"/>
</svg>
