<svg width="50" height="50" viewBox="0 0 50 50" fill="none" xmlns="http://www.w3.org/2000/svg">
<path fill-rule="evenodd" clip-rule="evenodd" d="M9.375 7.8125C8.9606 7.8125 8.56317 7.97712 8.27015 8.27015C7.97712 8.56317 7.8125 8.9606 7.8125 9.375V40.625C7.8125 41.0394 7.97712 41.4368 8.27015 41.7299C8.56317 42.0229 8.9606 42.1875 9.375 42.1875H25.7812C26.4029 42.1875 26.999 42.4344 27.4385 42.874C27.8781 43.3135 28.125 43.9096 28.125 44.5312C28.125 45.1529 27.8781 45.749 27.4385 46.1885C26.999 46.6281 26.4029 46.875 25.7812 46.875H9.375C7.7174 46.875 6.12769 46.2165 4.95558 45.0444C3.78348 43.8723 3.125 42.2826 3.125 40.625V9.375C3.125 7.7174 3.78348 6.12769 4.95558 4.95558C6.12769 3.78348 7.7174 3.125 9.375 3.125H40.625C42.2826 3.125 43.8723 3.78348 45.0444 4.95558C46.2165 6.12769 46.875 7.7174 46.875 9.375V28.9062C46.875 29.5279 46.6281 30.124 46.1885 30.5635C45.749 31.0031 45.1529 31.25 44.5312 31.25C43.9096 31.25 43.3135 31.0031 42.874 30.5635C42.4344 30.124 42.1875 29.5279 42.1875 28.9062V9.375C42.1875 8.9606 42.0229 8.56317 41.7299 8.27015C41.4368 7.97712 41.0394 7.8125 40.625 7.8125H9.375ZM47.75 35.0625C48.1889 35.502 48.4354 36.0977 48.4354 36.7188C48.4354 37.3398 48.1889 37.9355 47.75 38.375L39.9375 46.1875C39.498 46.6264 38.9023 46.8729 38.2812 46.8729C37.6602 46.8729 37.0645 46.6264 36.625 46.1875L33.5 43.0625C33.2697 42.8479 33.085 42.5892 32.9569 42.3017C32.8288 42.0142 32.76 41.7038 32.7544 41.3891C32.7488 41.0744 32.8067 40.7618 32.9246 40.47C33.0425 40.1782 33.2179 39.9131 33.4405 39.6905C33.6631 39.4679 33.9282 39.2925 34.22 39.1746C34.5118 39.0567 34.8244 38.9988 35.1391 39.0044C35.4538 39.01 35.7642 39.0788 36.0517 39.2069C36.3392 39.335 36.5979 39.5197 36.8125 39.75L38.2812 41.2188L44.4375 35.0625C44.877 34.6236 45.4727 34.3771 46.0938 34.3771C46.7148 34.3771 47.3105 34.6236 47.75 35.0625ZM14.8438 12.5C14.2221 12.5 13.626 12.7469 13.1865 13.1865C12.7469 13.626 12.5 14.2221 12.5 14.8438C12.5 15.4654 12.7469 16.0615 13.1865 16.501C13.626 16.9406 14.2221 17.1875 14.8438 17.1875H35.1562C35.7779 17.1875 36.374 16.9406 36.8135 16.501C37.2531 16.0615 37.5 15.4654 37.5 14.8438C37.5 14.2221 37.2531 13.626 36.8135 13.1865C36.374 12.7469 35.7779 12.5 35.1562 12.5H14.8438ZM12.5 25C12.5 24.3784 12.7469 23.7823 13.1865 23.3427C13.626 22.9032 14.2221 22.6562 14.8438 22.6562H35.1562C35.7779 22.6562 36.374 22.9032 36.8135 23.3427C37.2531 23.7823 37.5 24.3784 37.5 25C37.5 25.6216 37.2531 26.2177 36.8135 26.6573C36.374 27.0968 35.7779 27.3438 35.1562 27.3438H14.8438C14.2221 27.3438 13.626 27.0968 13.1865 26.6573C12.7469 26.2177 12.5 25.6216 12.5 25ZM14.8438 32.8125C14.2221 32.8125 13.626 33.0594 13.1865 33.499C12.7469 33.9385 12.5 34.5346 12.5 35.1562C12.5 35.7779 12.7469 36.374 13.1865 36.8135C13.626 37.2531 14.2221 37.5 14.8438 37.5H25.7812C26.4029 37.5 26.999 37.2531 27.4385 36.8135C27.8781 36.374 28.125 35.7779 28.125 35.1562C28.125 34.5346 27.8781 33.9385 27.4385 33.499C26.999 33.0594 26.4029 32.8125 25.7812 32.8125H14.8438Z" fill="white"/>
</svg>
