<svg width="50" height="50" viewBox="0 0 50 50" fill="none" xmlns="http://www.w3.org/2000/svg">
<path fill-rule="evenodd" clip-rule="evenodd" d="M7.21602 42.7832C10.2702 45.8332 15.1785 45.8332 24.9994 45.8332C34.8202 45.8332 39.7306 45.8332 42.7806 42.7811C45.8327 39.7332 45.8327 34.8207 45.8327 24.9998C45.8327 15.179 45.8327 10.2686 42.7806 7.2165C39.7327 4.1665 34.8202 4.1665 24.9994 4.1665C15.1785 4.1665 10.2681 4.1665 7.21602 7.2165C4.16602 10.2707 4.16602 15.179 4.16602 24.9998C4.16602 34.8207 4.16602 39.7332 7.21602 42.7832ZM30.7285 33.3332C30.7285 33.7476 30.5639 34.145 30.2709 34.438C29.9778 34.7311 29.5804 34.8957 29.166 34.8957H20.8327C20.4183 34.8957 20.0209 34.7311 19.7278 34.438C19.4348 34.145 19.2702 33.7476 19.2702 33.3332C19.2702 32.9188 19.4348 32.5213 19.7278 32.2283C20.0209 31.9353 20.4183 31.7707 20.8327 31.7707H29.166C29.5804 31.7707 29.9778 31.9353 30.2709 32.2283C30.5639 32.5213 30.7285 32.9188 30.7285 33.3332ZM33.3327 26.5623C33.7471 26.5623 34.1445 26.3977 34.4375 26.1047C34.7306 25.8117 34.8952 25.4142 34.8952 24.9998C34.8952 24.5854 34.7306 24.188 34.4375 23.895C34.1445 23.602 33.7471 23.4373 33.3327 23.4373H16.666C16.2516 23.4373 15.8542 23.602 15.5612 23.895C15.2681 24.188 15.1035 24.5854 15.1035 24.9998C15.1035 25.4142 15.2681 25.8117 15.5612 26.1047C15.8542 26.3977 16.2516 26.5623 16.666 26.5623H33.3327ZM39.0619 16.6665C39.0619 17.0809 38.8972 17.4783 38.6042 17.7714C38.3112 18.0644 37.9138 18.229 37.4994 18.229H12.4993C12.0849 18.229 11.6875 18.0644 11.3945 17.7714C11.1015 17.4783 10.9368 17.0809 10.9368 16.6665C10.9368 16.2521 11.1015 15.8547 11.3945 15.5617C11.6875 15.2686 12.0849 15.104 12.4993 15.104H37.4994C37.9138 15.104 38.3112 15.2686 38.6042 15.5617C38.8972 15.8547 39.0619 16.2521 39.0619 16.6665Z" fill="black"/>
</svg>
